<svg width="24" height="24" viewBox="0 0 24 24" fill="none" xmlns="http://www.w3.org/2000/svg">
<path d="M2.46939 13.2805L11.4694 22.2805C11.539 22.3503 11.6218 22.4056 11.7128 22.4433C11.8039 22.4811 11.9015 22.5005 12 22.5005C12.0986 22.5005 12.1962 22.4811 12.2872 22.4433C12.3783 22.4056 12.461 22.3503 12.5306 22.2805L21.5306 13.2805C21.6357 13.1756 21.7072 13.0419 21.7362 12.8964C21.7652 12.7508 21.7503 12.5999 21.6935 12.4628C21.6367 12.3257 21.5405 12.2085 21.417 12.1261C21.2936 12.0437 21.1484 11.9998 21 11.9999H17.25V4.4999C17.25 4.10207 17.092 3.72054 16.8107 3.43924C16.5294 3.15793 16.1478 2.9999 15.75 2.9999H8.25002C7.85219 2.9999 7.47066 3.15793 7.18936 3.43924C6.90805 3.72054 6.75002 4.10207 6.75002 4.4999V11.9999H3.00002C2.8516 11.9998 2.70648 12.0437 2.58303 12.1261C2.45959 12.2085 2.36337 12.3257 2.30655 12.4628C2.24974 12.5999 2.23488 12.7508 2.26387 12.8964C2.29286 13.0419 2.36438 13.1756 2.46939 13.2805ZM7.50002 13.4999C7.69893 13.4999 7.8897 13.4209 8.03035 13.2802C8.171 13.1396 8.25002 12.9488 8.25002 12.7499V4.4999H15.75L15.75 12.7499C15.75 12.9488 15.829 13.1396 15.9697 13.2802C16.1103 13.4209 16.3011 13.4999 16.5 13.4999H19.1897L12 20.6896L4.81033 13.4999H7.50002Z" fill="#858585"/>
</svg>
