<svg width="24" height="24" viewBox="0 0 24 24" fill="none" xmlns="http://www.w3.org/2000/svg">
<path d="M12.7 16.8799H13.4C14.55 16.8799 15.49 15.9399 15.49 14.7899V14.0899H12.7V16.8799ZM8.51001 14.7899C8.51001 15.9399 9.45001 16.8799 10.6 16.8799H11.3V14.0899H8.51001V14.7899ZM8.51001 11.9999V12.6999H11.3V9.90991H10.6C9.45001 9.90991 8.51001 10.8499 8.51001 11.9999Z" fill="#262626"/>
<path d="M20.03 6.82189L14.28 2.79189C12.71 1.69189 10.31 1.75189 8.8 2.92189L3.79 6.83189C2.78 7.61189 2 9.21189 2 10.4719V17.3719C2 19.9219 4.07 22.0019 6.61 22.0019H17.38C18.6036 21.9992 19.7761 21.5113 20.6404 20.6452C21.5046 19.7791 21.99 18.6055 21.99 17.3819V10.6019C22 9.25189 21.13 7.59189 20.03 6.82189ZM16.88 14.7919C16.8774 15.7167 16.5088 16.6028 15.8549 17.2568C15.201 17.9107 14.3148 18.2793 13.39 18.2819H10.6C8.68 18.2819 7.11 16.7219 7.11 14.7919V12.0019C7.11264 11.0771 7.48118 10.1909 8.13511 9.537C8.78904 8.88307 9.67521 8.51453 10.6 8.51189H13.39C15.31 8.51189 16.88 10.0719 16.88 12.0019V14.7919Z" fill="#262626"/>
<path d="M13.4 9.90991H12.7V12.6999H15.49V11.9999C15.49 10.8499 14.55 9.90991 13.4 9.90991Z" fill="#262626"/>
</svg>
