<svg width="17" height="17" viewBox="0 0 17 17" fill="none" xmlns="http://www.w3.org/2000/svg">
<path d="M8.50065 12.2896C8.80687 12.2896 9.10054 12.168 9.31707 11.9515C9.53359 11.7349 9.65524 11.4413 9.65524 11.1351C9.65524 10.8288 9.53359 10.5352 9.31707 10.3186C9.10054 10.1021 8.80687 9.98047 8.50065 9.98047C8.19444 9.98047 7.90077 10.1021 7.68424 10.3186C7.46771 10.5352 7.34607 10.8288 7.34607 11.1351C7.34607 11.4413 7.46771 11.7349 7.68424 11.9515C7.90077 12.168 8.19444 12.2896 8.50065 12.2896Z" fill="#9E9E9E"/>
<path d="M12.9483 6.75025V5.86484C12.9483 3.95234 12.4879 1.4165 8.49996 1.4165C4.51204 1.4165 4.05163 3.95234 4.05163 5.86484V6.75025C2.06829 6.99817 1.41663 8.004 1.41663 10.4761V11.7936C1.41663 14.6978 2.30204 15.5832 5.20621 15.5832H11.7937C14.6979 15.5832 15.5833 14.6978 15.5833 11.7936V10.4761C15.5833 8.004 14.9316 6.99817 12.9483 6.75025ZM8.49996 13.274C7.31704 13.274 6.36079 12.3107 6.36079 11.1348C6.36079 9.95192 7.32413 8.99567 8.49996 8.99567C9.06673 8.99754 9.60975 9.22351 10.0105 9.62428C10.4113 10.025 10.6373 10.5681 10.6391 11.1348C10.6391 12.3178 9.68288 13.274 8.49996 13.274ZM5.20621 6.6865H5.04329V5.86484C5.04329 3.78942 5.63121 2.40817 8.49996 2.40817C11.3687 2.40817 11.9566 3.78942 11.9566 5.86484V6.69359H5.20621V6.6865Z" fill="#9E9E9E"/>
</svg>
