<svg width="29" height="29" viewBox="0 0 29 29" fill="none" xmlns="http://www.w3.org/2000/svg">
<circle cx="14.5" cy="14.5" r="14.5" fill="white"/>
<path d="M15.02 5.91016C11.71 5.91016 9.01997 8.60016 9.01997 11.9102V14.8002C9.01997 15.4102 8.75997 16.3402 8.44997 16.8602L7.29997 18.7702C6.58997 19.9502 7.07997 21.2602 8.37997 21.7002C12.69 23.1402 17.34 23.1402 21.65 21.7002C22.86 21.3002 23.39 19.8702 22.73 18.7702L21.58 16.8602C21.28 16.3402 21.02 15.4102 21.02 14.8002V11.9102C21.02 8.61016 18.32 5.91016 15.02 5.91016Z" stroke="black" stroke-miterlimit="10" stroke-linecap="round"/>
<path d="M16.87 6.19994C15.6608 5.85553 14.3793 5.85553 13.17 6.19994C13.46 5.45994 14.18 4.93994 15.02 4.93994C15.86 4.93994 16.58 5.45994 16.87 6.19994Z" stroke="black" stroke-miterlimit="10" stroke-linecap="round" stroke-linejoin="round"/>
<path d="M18.02 22.0601C18.02 23.7101 16.67 25.0601 15.02 25.0601C14.2 25.0601 13.44 24.7201 12.9 24.1801C12.3382 23.6174 12.0218 22.8552 12.02 22.0601" stroke="black" stroke-miterlimit="10"/>
<circle cx="21" cy="9" r="4.5" fill="#D92C2C" stroke="white"/>
</svg>
